# xmcd
#
# Track frame offsets: 
#        150
#        21617
#        36184
#        57651
#
# Disc length: 959 seconds
#
# Revision: 2
# Processed by: cddbd v1.5.2PL0 Copyright (c) Steve Scherf et al.
# Submitted via: ExactAudioCopy v1.0b3
#
DISCID=3703bd04
DTITLE=井口裕香 - 変わらない強さ
DYEAR=2016
DGENRE=JPop
TTITLE0=変わらない強さ
TTITLE1=Valentine Eve
TTITLE2=変わらない強さ (Instrumental)
TTITLE3=Valentine Eve (Instrumental)
EXTD=YEAR: 2001
EXTT0=
EXTT1=
EXTT2=
EXTT3=
PLAYORDER=
